# xmcd CD database file
# Copyright (C) 1995-1998 Ti Kan
#
# Track frame offsets:
#	150
#	10232
#	20597
#	30475
#	42560
#	54100
#	63777
#	73587
#	84062
#	96035
#	108945
#	120957
#	132915
#	145135
#	156290
#
# Disc length: 2239 seconds
#
# Revision: 1
# Processed by: cddbd v1.4b42PL0 Copyright (c) Steve Scherf et al.
# Submitted via: CDex 1.30Release
#
DISCID=b308bd0f
DTITLE=Loretta Lynn - 30 Greatest Hits Disc Two
DYEAR=2001
DGENRE=Country
TTITLE0=You Ain't Woman Enough
TTITLE1=I Wanna Be Free
TTITLE2=Fist City
TTITLE3=Success
TTITLE4=Before I'm Over You 
TTITLE5=Don't Come Home a-Drinkin'
TTITLE6=Trouble in Paradise
TTITLE7=You've Just Stepped In
TTITLE8=If You're Not Gone Too Long
TTITLE9=Hey Loretta
TTITLE10=Rated X
TTITLE11=Wings Upon Your Horns
TTITLE12=Mr. and Mrs. Used to Be
TTITLE13=The Other Woman
TTITLE14=The Pill
EXTD=YEAR: 2001 ID3G:   2
EXTT0=
EXTT1=
EXTT2=
EXTT3=
EXTT4=
EXTT5=
EXTT6=
EXTT7=
EXTT8=
EXTT9=
EXTT10=
EXTT11=
EXTT12=
EXTT13=
EXTT14=
PLAYORDER=
